<svg width="120" height="103" viewBox="0 0 120 103" fill="none" xmlns="http://www.w3.org/2000/svg">
<path d="M9.49054 87.9997C9.49054 89.4965 9.00033 90.6436 8.0199 91.441C7.03947 92.2384 5.64399 92.6371 3.83347 92.6371H2.34322V98.0001H0V83.6662H4.1276C5.91851 83.6662 7.25843 84.0323 8.14735 84.7643C9.04281 85.4964 9.49054 86.5748 9.49054 87.9997ZM2.34322 90.6665H3.58837C4.79102 90.6665 5.67341 90.4573 6.23552 90.039C6.79763 89.6207 7.07869 88.9671 7.07869 88.0782C7.07869 87.2546 6.82704 86.6402 6.32376 86.235C5.82047 85.8297 5.03613 85.6271 3.97073 85.6271H2.34322V90.6665Z" fill="#5F6C7B"/>
<path d="M18.759 98.0001L18.2982 96.4902H18.2197C17.6968 97.1504 17.1707 97.6014 16.6413 97.8432C16.1118 98.0785 15.4321 98.1962 14.602 98.1962C13.5366 98.1962 12.7032 97.9086 12.1019 97.3334C11.5071 96.7582 11.2097 95.9445 11.2097 94.8921C11.2097 93.7744 11.6247 92.9313 12.4548 92.3626C13.2849 91.794 14.5497 91.4835 16.2491 91.4312L18.1217 91.3724V90.7939C18.1217 90.1011 17.9583 89.5847 17.6315 89.2449C17.3112 88.8984 16.8112 88.7252 16.1314 88.7252C15.5759 88.7252 15.0432 88.8069 14.5333 88.9703C14.0235 89.1337 13.5333 89.3266 13.0627 89.5488L12.3176 87.9017C12.9058 87.5945 13.5496 87.3624 14.249 87.2056C14.9484 87.0422 15.6085 86.9605 16.2295 86.9605C17.6086 86.9605 18.6479 87.2611 19.3472 87.8625C20.0531 88.4638 20.4061 89.4083 20.4061 90.6959V98.0001H18.759ZM15.3275 96.4314C16.1641 96.4314 16.8341 96.1994 17.3374 95.7353C17.8472 95.2647 18.1021 94.6078 18.1021 93.7646V92.8234L16.7099 92.8822C15.6249 92.9215 14.834 93.1045 14.3373 93.4313C13.847 93.7516 13.6019 94.245 13.6019 94.9117C13.6019 95.3954 13.7457 95.7712 14.0333 96.0392C14.3209 96.3007 14.7523 96.4314 15.3275 96.4314Z" fill="#5F6C7B"/>
<path d="M28.9882 86.9605C29.4523 86.9605 29.8347 86.9931 30.1353 87.0585L29.9098 89.2056C29.583 89.1272 29.2432 89.088 28.8902 89.088C27.9686 89.088 27.2202 89.3887 26.645 89.99C26.0764 90.5913 25.792 91.3724 25.792 92.3332V98.0001H23.488V87.1566H25.292L25.596 89.0684H25.7136C26.0731 88.4213 26.5404 87.9082 27.1156 87.5291C27.6973 87.15 28.3215 86.9605 28.9882 86.9605Z" fill="#5F6C7B"/>
<path d="M34.2467 92.2744L35.5507 90.6469L38.8253 87.1566H41.4823L37.1194 91.8136L41.7568 98.0001H39.0508L35.5703 93.245L34.3056 94.2843V98.0001H32.0212V82.7446H34.3056V90.1861L34.1879 92.2744H34.2467Z" fill="#5F6C7B"/>
<path d="M45.6819 98.0001H43.3779V87.1566H45.6819V98.0001ZM43.2406 84.2839C43.2406 83.8721 43.3518 83.5551 43.574 83.3329C43.8028 83.1107 44.1263 82.9995 44.5446 82.9995C44.9499 82.9995 45.2636 83.1107 45.4858 83.3329C45.7146 83.5551 45.829 83.8721 45.829 84.2839C45.829 84.6761 45.7146 84.9865 45.4858 85.2153C45.2636 85.4375 44.9499 85.5487 44.5446 85.5487C44.1263 85.5487 43.8028 85.4375 43.574 85.2153C43.3518 84.9865 43.2406 84.6761 43.2406 84.2839Z" fill="#5F6C7B"/>
<path d="M58.3917 98.0001H56.0778V91.3332C56.0778 90.4965 55.9079 89.8723 55.568 89.4606C55.2347 89.0488 54.702 88.8429 53.9699 88.8429C52.996 88.8429 52.2836 89.1305 51.8326 89.7057C51.3816 90.2808 51.1561 91.2449 51.1561 92.5979V98.0001H48.8521V87.1566H50.6561L50.9796 88.5782H51.0973C51.4241 88.0618 51.8881 87.6631 52.4895 87.3821C53.0908 87.101 53.7575 86.9605 54.4895 86.9605C57.091 86.9605 58.3917 88.284 58.3917 90.9312V98.0001Z" fill="#5F6C7B"/>
<path d="M70.621 87.1566V88.4213L68.768 88.7645C68.9379 88.9932 69.0784 89.2743 69.1896 89.6076C69.3007 89.941 69.3562 90.2939 69.3562 90.6665C69.3562 91.7842 68.9706 92.6633 68.1993 93.3038C67.4281 93.9444 66.3659 94.2647 65.0129 94.2647C64.6665 94.2647 64.3528 94.2385 64.0717 94.1862C63.575 94.4934 63.3266 94.8529 63.3266 95.2647C63.3266 95.5131 63.441 95.6993 63.6697 95.8235C63.905 95.9477 64.3332 96.0098 64.9541 96.0098H66.8463C68.0425 96.0098 68.951 96.2647 69.5719 96.7745C70.1929 97.2844 70.5033 98.0197 70.5033 98.9805C70.5033 100.209 69.9968 101.157 68.9837 101.824C67.9706 102.49 66.5065 102.824 64.5914 102.824C63.1142 102.824 61.9867 102.562 61.2089 102.039C60.4311 101.517 60.0422 100.771 60.0422 99.8041C60.0422 99.1374 60.2513 98.5753 60.6696 98.1177C61.0945 97.6667 61.686 97.353 62.4442 97.1765C62.137 97.0458 61.8821 96.8366 61.6795 96.549C61.4834 96.2549 61.3854 95.9477 61.3854 95.6274C61.3854 95.2222 61.4997 94.8791 61.7285 94.598C61.9573 94.3169 62.2971 94.0392 62.7481 93.7646C62.186 93.5228 61.7285 93.1306 61.3755 92.5881C61.0291 92.0391 60.8559 91.3985 60.8559 90.6665C60.8559 89.49 61.2252 88.5782 61.9638 87.9311C62.7089 87.284 63.7678 86.9605 65.1404 86.9605C65.4476 86.9605 65.7679 86.9833 66.1012 87.0291C66.4411 87.0683 66.696 87.1108 66.8659 87.1566H70.621ZM62.1011 99.6864C62.1011 100.183 62.3233 100.566 62.7678 100.834C63.2188 101.102 63.8495 101.235 64.66 101.235C65.9149 101.235 66.8496 101.056 67.464 100.696C68.0784 100.337 68.3856 99.8596 68.3856 99.2648C68.3856 98.7942 68.2157 98.4576 67.8758 98.255C67.5424 98.0589 66.9182 97.9609 66.0032 97.9609H64.258C63.5978 97.9609 63.0717 98.1145 62.6795 98.4217C62.2939 98.7354 62.1011 99.157 62.1011 99.6864ZM63.0913 90.6665C63.0913 91.3462 63.2645 91.8691 63.6109 92.2352C63.9639 92.6012 64.4672 92.7842 65.1208 92.7842C66.4542 92.7842 67.1209 92.0718 67.1209 90.6469C67.1209 89.941 66.9542 89.3985 66.6208 89.0194C66.294 88.6337 65.794 88.4409 65.1208 88.4409C64.4541 88.4409 63.9475 88.6305 63.6011 89.0096C63.2612 89.3887 63.0913 89.941 63.0913 90.6665Z" fill="#5F6C7B"/>
<path d="M82.3243 98.1962C80.6379 98.1962 79.3176 97.706 78.3633 96.7255C77.4156 95.7386 76.9417 94.3823 76.9417 92.6568C76.9417 90.8854 77.3829 89.4932 78.2653 88.4801C79.1477 87.467 80.3602 86.9605 81.9027 86.9605C83.3341 86.9605 84.4649 87.3951 85.295 88.2644C86.1251 89.1337 86.5401 90.3299 86.5401 91.8528V93.0979H79.3144C79.3471 94.1503 79.6314 94.9608 80.1673 95.5294C80.7033 96.0915 81.4582 96.3726 82.4321 96.3726C83.0727 96.3726 83.6675 96.3137 84.2165 96.1961C84.7721 96.0719 85.3669 95.8693 86.0009 95.5882V97.4608C85.4388 97.7288 84.8701 97.9184 84.2949 98.0295C83.7197 98.1406 83.0629 98.1962 82.3243 98.1962ZM81.9027 88.7056C81.1706 88.7056 80.5824 88.9377 80.1379 89.4017C79.7 89.8658 79.4386 90.5423 79.3536 91.4312H84.2753C84.2623 90.5358 84.0466 89.8593 83.6283 89.4017C83.2099 88.9377 82.6348 88.7056 81.9027 88.7056Z" fill="#5F6C7B"/>
<path d="M95.8086 98.0001L95.3478 96.4902H95.2693C94.7464 97.1504 94.2203 97.6014 93.6908 97.8432C93.1614 98.0785 92.4816 98.1962 91.6515 98.1962C90.5861 98.1962 89.7528 97.9086 89.1515 97.3334C88.5567 96.7582 88.2593 95.9445 88.2593 94.8921C88.2593 93.7744 88.6743 92.9313 89.5044 92.3626C90.3345 91.794 91.5993 91.4835 93.2987 91.4312L95.1713 91.3724V90.7939C95.1713 90.1011 95.0079 89.5847 94.6811 89.2449C94.3608 88.8984 93.8608 88.7252 93.181 88.7252C92.6254 88.7252 92.0927 88.8069 91.5829 88.9703C91.0731 89.1337 90.5829 89.3266 90.1123 89.5488L89.3671 87.9017C89.9554 87.5945 90.5992 87.3624 91.2986 87.2056C91.998 87.0422 92.6581 86.9605 93.2791 86.9605C94.6582 86.9605 95.6974 87.2611 96.3968 87.8625C97.1027 88.4638 97.4557 89.4083 97.4557 90.6959V98.0001H95.8086ZM92.3771 96.4314C93.2137 96.4314 93.8836 96.1994 94.3869 95.7353C94.8968 95.2647 95.1517 94.6078 95.1517 93.7646V92.8234L93.7595 92.8822C92.6745 92.9215 91.8836 93.1045 91.3868 93.4313C90.8966 93.7516 90.6515 94.245 90.6515 94.9117C90.6515 95.3954 90.7953 95.7712 91.0829 96.0392C91.3705 96.3007 91.8019 96.4314 92.3771 96.4314Z" fill="#5F6C7B"/>
<path d="M107.822 94.9117C107.822 95.9706 107.437 96.7844 106.665 97.353C105.894 97.9151 104.789 98.1962 103.351 98.1962C101.907 98.1962 100.747 97.9772 99.8709 97.5393V95.549C101.145 96.1373 102.332 96.4314 103.43 96.4314C104.848 96.4314 105.557 96.0033 105.557 95.147C105.557 94.8725 105.479 94.6438 105.322 94.4607C105.165 94.2777 104.907 94.0882 104.548 93.8921C104.188 93.696 103.688 93.4738 103.048 93.2254C101.799 92.7417 100.953 92.258 100.508 91.7744C100.07 91.2907 99.8513 90.6632 99.8513 89.8919C99.8513 88.9638 100.224 88.2448 100.969 87.735C101.721 87.2186 102.74 86.9605 104.028 86.9605C105.303 86.9605 106.508 87.2186 107.646 87.735L106.901 89.4704C105.731 88.9867 104.747 88.7448 103.95 88.7448C102.734 88.7448 102.126 89.0913 102.126 89.7841C102.126 90.124 102.283 90.4116 102.597 90.6469C102.917 90.8822 103.61 91.2057 104.675 91.6175C105.57 91.9639 106.221 92.2809 106.626 92.5685C107.031 92.8561 107.332 93.1895 107.528 93.5685C107.724 93.9411 107.822 94.3888 107.822 94.9117Z" fill="#5F6C7B"/>
<path d="M108.541 87.1566H111.051L113.257 93.3038C113.591 94.1797 113.813 95.0032 113.924 95.7745H114.002C114.061 95.415 114.169 94.9804 114.326 94.4705C114.483 93.9542 115.313 91.5162 116.816 87.1566H119.306L114.669 99.4413C113.826 101.696 112.421 102.824 110.453 102.824C109.943 102.824 109.447 102.768 108.963 102.657V100.834C109.309 100.912 109.705 100.951 110.149 100.951C111.26 100.951 112.041 100.307 112.492 99.0197L112.894 98.0001L108.541 87.1566Z" fill="#5F6C7B"/>
<path d="M94.7944 34.056H86.1712C85.5554 34.056 85.0549 33.6056 85.0549 33.0514C85.0549 32.4971 85.5554 32.0467 86.1712 32.0467H93.6781V27.9946L59.9851 8.15778L26.3312 28.1369L26.3237 32.0467H33.9051C34.5209 32.0467 35.0214 32.4971 35.0214 33.0514C35.0214 33.6056 34.5209 34.056 33.9051 34.056H25.2056C24.9098 34.056 24.6251 33.9505 24.4149 33.7613C24.2047 33.5721 24.0875 33.3159 24.0893 33.0497L24.0986 27.5944C24.0986 27.2579 24.2884 26.9431 24.6009 26.7572L59.3675 6.11666C59.7395 5.89564 60.2214 5.89564 60.5935 6.11499L95.4065 26.6099C95.7209 26.7957 95.9126 27.1122 95.9126 27.4504V33.0514C95.9107 33.6056 95.4102 34.056 94.7944 34.056Z" fill="#3DA9FC"/>
<path d="M86.7814 29.0393L60.6102 13.6313C60.2381 13.412 59.7563 13.412 59.3842 13.633L33.4326 29.041C33.12 29.2269 32.9302 29.5417 32.9302 29.8799V65.0444C32.9302 65.5986 33.4307 66.049 34.0465 66.049H40.1395C40.7554 66.049 41.2558 65.5986 41.2558 65.0444V34.0559H78.7423V65.046C78.7423 65.6003 79.2428 66.0507 79.8586 66.0507H86.1693C86.7851 66.0507 87.2856 65.6003 87.2856 65.046V29.8799C87.2875 29.5417 87.0977 29.2252 86.7814 29.0393ZM85.0549 64.0397H80.9768V33.0513C80.9768 32.497 80.4763 32.0466 79.8605 32.0466H40.1395C39.5237 32.0466 39.0233 32.497 39.0233 33.0513V64.0414H35.1628V30.4207L60.0019 15.6741L85.0549 30.4241V64.0397Z" fill="#094067"/>
<path d="M67.4474 29.1434H52.5526C51.9367 29.1434 51.4363 28.6929 51.4363 28.1387V23.6697C51.4363 23.1155 51.9367 22.665 52.5526 22.665H67.4474C68.0633 22.665 68.5637 23.1155 68.5637 23.6697V28.1387C68.5637 28.6946 68.0633 29.1434 67.4474 29.1434ZM53.6688 27.1341H66.3312V24.6743H53.6688V27.1341Z" fill="#3DA9FC"/>
<path d="M66.2326 52.0861C66.1451 52.0861 66.0558 52.076 65.9665 52.0576C65.3675 51.9253 65.0009 51.3828 65.1479 50.8437C65.1926 50.6762 65.2168 50.5038 65.2168 50.3313C65.2168 49.1559 64.1544 48.1998 62.8484 48.1998C61.5423 48.1998 60.48 49.1559 60.48 50.3313C60.48 50.5038 60.5023 50.6762 60.5489 50.8437C60.6958 51.3828 60.3275 51.927 59.7303 52.0576C59.1312 52.1882 58.5265 51.86 58.3814 51.3209C58.294 50.9977 58.2493 50.6645 58.2493 50.333C58.2493 48.0491 60.3126 46.1921 62.8503 46.1921C65.3879 46.1921 67.4512 48.0491 67.4512 50.333C67.4512 50.6662 67.4065 50.9977 67.3191 51.3209C67.1926 51.7797 66.7368 52.0861 66.2326 52.0861Z" fill="#3DA9FC"/>
<path d="M61.0679 43.7659H58.9302C58.3144 43.7659 57.814 43.3155 57.814 42.7612C57.814 42.207 58.3144 41.7566 58.9302 41.7566H61.0679C61.6837 41.7566 62.1842 42.207 62.1842 42.7612C62.1842 43.3155 61.6856 43.7659 61.0679 43.7659Z" fill="#094067"/>
<path d="M76.6568 60.5019L75.2893 52.6773C75.0251 51.172 73.6298 50.0786 71.9684 50.0786H71.9498L70.1358 41.1959C69.7916 39.5114 68.2475 38.2891 66.4651 38.2891H53.533C51.7507 38.2891 50.2065 39.5114 49.8623 41.1959L48.0484 50.0786H48.0298C46.3684 50.0786 44.973 51.172 44.7088 52.6773L43.3414 60.5019C43.2912 60.7916 43.3842 61.0879 43.5963 61.3106C43.8084 61.5333 44.1191 61.6623 44.4447 61.6623H45.7433V65.0446C45.7433 65.5988 46.2437 66.0492 46.8595 66.0492H53.5609C54.1768 66.0492 54.6772 65.5988 54.6772 65.0446V61.6623H65.3209V65.0446C65.3209 65.5988 65.8214 66.0492 66.4372 66.0492H73.1386C73.7544 66.0492 74.2549 65.5988 74.2549 65.0446V61.6623H75.5535C75.8791 61.6623 76.1898 61.5333 76.4019 61.3106C76.614 61.0879 76.707 60.7916 76.6568 60.5019ZM52.0595 41.5575C52.2084 40.8275 52.8298 40.2967 53.5349 40.2967H66.467C67.1721 40.2967 67.7935 40.8275 67.9423 41.5575L69.6819 50.077H50.32L52.0595 41.5575ZM46.9172 52.9888C47.0084 52.4664 47.4772 52.0863 48.0316 52.0863H48.9805H71.0214H71.9702C72.5247 52.0863 72.9935 52.4664 73.0847 52.9888L74.2493 59.653H73.1516C73.1479 59.653 73.1442 59.653 73.1405 59.653C73.1368 59.653 73.133 59.653 73.1293 59.653H66.4484C66.4447 59.653 66.4409 59.653 66.4372 59.653C66.4335 59.653 66.4298 59.653 66.4261 59.653H53.5721C53.5684 59.653 53.5647 59.653 53.5609 59.653C53.5572 59.653 53.5535 59.653 53.5498 59.653H46.8688C46.8651 59.653 46.8614 59.653 46.8577 59.653C46.854 59.653 46.8502 59.653 46.8465 59.653H45.7488L46.9172 52.9888ZM52.4465 64.0399H47.9777V61.6623H52.4465V64.0399ZM72.0242 64.0399H67.5535V61.6623H72.0223V64.0399H72.0242Z" fill="#094067"/>
<path d="M70 56.8667H67.0772C66.4614 56.8667 65.9609 56.4163 65.9609 55.8621C65.9609 55.3078 66.4614 54.8574 67.0772 54.8574H70C70.6158 54.8574 71.1163 55.3078 71.1163 55.8621C71.1163 56.4163 70.6177 56.8667 70 56.8667Z" fill="#3DA9FC"/>
<path d="M52.9228 56.8667H50C49.3842 56.8667 48.8837 56.4163 48.8837 55.8621C48.8837 55.3078 49.3842 54.8574 50 54.8574H52.9228C53.5386 54.8574 54.0391 55.3078 54.0391 55.8621C54.0391 56.4163 53.5386 56.8667 52.9228 56.8667Z" fill="#3DA9FC"/>
</svg>
